<?xml version="1.0" encoding="UTF-8"?>
<svg width="200px" height="200px" viewBox="0 0 200 200" version="1.1" xmlns="http://www.w3.org/2000/svg" xmlns:xlink="http://www.w3.org/1999/xlink">
    <!-- Generator: Sketch 54.1 (76490) - https://sketchapp.com -->
    <title>rollins</title>
    <desc>Created with Sketch.</desc>
    <g id="rollins" stroke="none" stroke-width="1" fill="none" fill-rule="evenodd">
        <g id="rollins_BGL">
            <g id="rollins" transform="translate(0.000000, 4.000000)">
                <g id="g10" transform="translate(99.926088, 95.793056) scale(-1, 1) rotate(-180.000000) translate(-99.926088, -95.793056) translate(0.000000, 0.301558)" fill-rule="nonzero">
                    <g id="g12">
                        <path d="M156.141312,77.9116019 L156.141312,84.1726513 L149.128156,84.1726513 L153.56038,87.6594213 L153.56038,121.948851 L137.512487,136.988614 L148.360085,136.988614 C158.2167,129.751955 172.959641,136.970876 173.37531,149.157129 C173.781518,161.469323 159.508052,169.670358 149.109826,162.951068 L118.529487,164.794674 C123.713227,177.601769 113.175459,190.841089 99.9455999,190.841089 C86.6844029,190.841089 76.1223928,177.601769 81.3055412,164.794674 L50.6744111,162.951068 C41.1100064,169.141755 27.6988611,162.677897 26.4966734,151.351364 C25.3268286,140.12653 36.8833102,131.133182 47.518225,134.914409 L47.518225,96.9963021 L52.1479957,96.9963021 L52.1479957,84.1726513 L47.518225,84.1726513 L47.518225,76.804137 L0,90.6737597 L1.87777083,81.3345139 C5.59751649,62.9398358 19.5295191,49.1246107 33.7675675,37.9896517 C49.0449655,26.1086764 67.8332577,19.0837541 85.6833681,12.065809 C88.0183274,7.83325923 92.0538041,3.78787869 97.4533605,1.12365999 L99.9651121,0 L102.463264,1.12365999 C107.864594,3.78787869 111.727418,7.83325923 114.065925,12.065809 C131.966294,19.0837541 150.779597,26.1086764 166.042864,37.9815512 C180.273166,49.1246107 194.203691,62.9398358 197.918103,81.3345139 L199.790091,90.6737597 L156.141312,77.9116019 Z M148.844933,83.0687341 L149.340425,79.8066499 L148.490758,79.8066499 L148.251881,81.6845508 L148.243012,81.6845508 L147.46075,79.8066499 L147.123721,79.8066499 L146.376345,81.6845508 L146.368067,81.6845508 L146.092531,79.8066499 L145.248186,79.8066499 L145.806944,83.0687341 L146.639464,83.0687341 L147.301105,81.322097 L147.999996,83.0687341 L148.844933,83.0687341 Z M162.065924,42.2307159 C155.114852,36.8279074 145.997927,31.9613887 136.633256,27.6191567 C127.924313,23.6934214 117.532,19.5652915 109.91574,16.6100809 C108.405614,13.0051142 104.998076,8.74028064 99.9651121,6.31237235 C94.9274182,8.74028064 91.3460435,13.0051142 89.9050975,16.6100809 C82.2787858,19.5652915 71.893568,23.6934214 63.1781211,27.6191567 C53.8056454,31.9613887 44.6845222,36.8279074 37.7258823,42.2307159 C25.335343,51.8523564 11.0883072,64.9022896 7.549682,82.4644473 L53.2927112,69.0938638 L53.2927112,78.393494 L57.9196438,78.393494 L57.9196438,102.727566 L53.2927112,102.727566 L53.2927112,136.99571 L89.7844767,136.99571 L89.7844767,142.730521 L49.3087349,142.730521 C43.2261926,136.393788 32.1877302,141.015222 32.1766733,149.700514 C32.1990236,158.17531 42.5963034,162.839316 48.8982693,157.038281 L89.7844767,159.510417 L89.7844767,162.318399 C87.2455263,164.725495 85.6662211,168.02956 85.6662211,171.686027 C85.6662211,179.068732 92.1105668,185.057793 99.9467824,185.057793 C107.806649,185.057793 114.074794,179.068732 114.074794,171.686027 C114.074794,168.02956 112.585954,164.725495 110.064742,162.318399 L110.064742,159.510417 L150.907905,157.038281 C157.182553,162.839316 167.576049,158.17531 167.59497,149.700514 C167.592014,141.015222 156.56112,136.393788 150.511748,142.730521 L110.081889,142.730521 L110.081889,136.99571 L129.056612,136.99571 L147.797188,119.442421 L147.797188,90.4419785 L138.516478,83.1367311 L141.361711,78.393494 L150.380484,78.393494 L150.380484,70.2237972 L192.253062,82.4644473 C188.720764,64.9022896 174.482183,51.8523564 162.065924,42.2307159 L162.065924,42.2307159 Z M142.888393,82.3497393 L142.888393,83.0687341 L145.135843,83.0687341 L145.135843,82.3497393 L144.43163,82.3497393 L144.43163,79.8066499 L143.587284,79.8066499 L143.587284,82.3497393 L142.888393,82.3497393 L142.888393,82.3497393 Z" id="path14" fill="#FFFFFF"></path>
                        <path d="M150.380484,54.8337015 C152.172058,56.2557857 153.892679,57.7171309 155.494453,59.1668869 L150.380484,62.8002941 L150.380484,54.8337015" id="path16" fill="#FFFFFF"></path>
                        <path d="M53.2927112,65.5414618 L44.3227779,59.1668869 C47.0473307,56.7026741 50.0866211,54.2116764 53.2927112,51.9447733 L53.2927112,65.5414618" id="path18" fill="#FFFFFF"></path>
                        <path d="M89.7844767,35.517161 L89.7844767,44.4343522 L66.8144847,44.4343522 C74.2563174,41.0804424 84.0029543,37.2378409 89.7844767,35.517161" id="path20" fill="#FFFFFF"></path>
                        <path d="M110.081889,58.4707746 L110.081889,35.517161 C115.819657,37.2390235 125.571024,41.0841675 133.010492,44.4406197 L117.948851,44.4406197 L110.081889,58.4707746" id="path22" fill="#FFFFFF"></path>
                        <path d="M170.763632,65.8424226 C157.672132,47.3126965 122.493419,32.9723569 106.772503,28.9114553 L100.896967,25.0000289 L100.896967,69.3487048 L96.8632644,76.1821119 L96.8632644,27.7766734 C80.5067238,31.7084988 43.1157417,46.235919 29.0437835,65.8424226 L38.1853058,62.6164064 L43.4867099,66.0316318 L18.5975457,72.8963766 C31.2414479,48.0668133 69.4846989,31.1587871 96.4872112,22.3916624 C96.5699902,21.1324163 97.1618601,14.1560381 100.869768,13.4181224 L100.869768,23.4402951 L103.177529,22.364641 C130.242717,31.1206496 168.559345,48.0390823 181.203839,72.8963766 L156.325199,66.0316318 L161.623647,62.6164064 L170.763632,65.8424226" id="path24" fill="#FFFFFF"></path>
                        <path d="M96.8632644,104.149 L100.896967,104.149 L100.896967,146.335547 L98.6891328,149.328008 L154.641238,149.328008 C154.725199,148.493714 155.02616,147.684254 155.525791,147.103027 C156.162598,146.330225 157.45395,145.909826 158.371023,146.124461 C160.248924,146.561415 161.127564,149.035916 159.533477,151.309383 C159.827343,151.175163 161.655576,150.572058 162.681445,149.372945 C162.634142,151.783588 161.089723,153.821726 158.625273,153.821726 C157.147668,153.821726 155.875828,153.036508 155.155059,151.824978 L100.878638,154.668437 L100.878638,162.425421 L99.5825548,164.27021 C99.7002192,164.262524 99.8297093,164.254246 99.9467824,164.254246 C104.258977,164.254246 107.859273,167.579005 107.859273,171.686027 C107.859273,175.781223 104.258977,179.111304 99.9467824,179.111304 C95.4832201,179.111304 92.062082,175.781223 92.062082,171.686027 C92.062082,168.611378 94.003841,165.975458 96.8325179,164.846116 L96.8325179,154.668437 C96.8325179,154.668437 45.7894445,151.517513 45.6164364,151.824978 C44.8930661,153.036508 43.6215806,153.821726 42.1468726,153.821726 C39.9150323,153.821726 38.1176044,152.039612 38.1176044,149.700514 C38.1176044,148.738503 38.4654536,147.76585 39.0188312,147.103027 C39.6399103,146.330225 40.9638423,145.909826 41.8484542,146.124461 C43.7636057,146.561415 44.6106123,149.035916 43.0427779,151.309383 C43.3379442,151.172797 45.1960964,150.554911 46.2239161,149.328008 L96.8632644,149.328008 L96.8632644,104.149 Z M96.7662947,170.816847 C96.3843287,170.528894 95.7516606,169.891496 95.8539518,168.882775 C95.3750161,169.523721 95.1491477,170.284105 95.1491477,171.115443 C95.1491477,173.806943 97.6674033,176.115295 100.353582,176.115295 C102.943974,176.115295 104.584181,174.041681 104.584181,171.276862 C104.584181,169.044194 102.856465,167.228968 100.578859,167.228968 C98.5968933,167.228968 97.00458,168.807682 96.7662947,170.816847 L96.7662947,170.816847 Z" id="path26" fill="#FFFFFF"></path>
                        <path d="M150.380484,78.393494 L141.361711,78.393494 L138.516478,83.1367311 L147.797188,90.4419785 L147.797188,119.442421 L129.056612,136.99571 L110.081889,136.99571 L110.081889,142.730521 L150.511748,142.730521 C156.56112,136.393788 167.592014,141.015222 167.59497,149.700514 C167.576049,158.17531 157.182553,162.839316 150.907905,157.038281 L110.064742,159.510417 L110.064742,162.318399 C112.585954,164.725495 114.074794,168.02956 114.074794,171.686027 C114.074794,179.068732 107.806649,185.057793 99.9467824,185.057793 C92.1105668,185.057793 85.6662211,179.068732 85.6662211,171.686027 C85.6662211,168.02956 87.2455263,164.725495 89.7844767,162.318399 L89.7844767,159.510417 L48.8982693,157.038281 C42.5963034,162.839316 32.1990236,158.17531 32.1766733,149.700514 C32.1877302,141.015222 43.2261926,136.393788 49.3087349,142.730521 L89.7844767,142.730521 L89.7844767,136.99571 L53.2927112,136.99571 L53.2927112,102.727566 L57.9196438,102.727566 L57.9196438,78.393494 L53.2927112,78.393494 L53.2927112,69.0938638 L7.549682,82.4644473 C11.0883072,64.9022896 25.335343,51.8523564 37.7258823,42.2307159 C44.6845222,36.8279074 53.8056454,31.9613887 63.1781211,27.6191567 C71.893568,23.6934214 82.2787858,19.5652915 89.9050975,16.6100809 C91.3460435,13.0051142 94.9274182,8.74028064 99.9651121,6.31237235 C104.998076,8.74028064 108.405614,13.0051142 109.91574,16.6100809 C117.532,19.5652915 127.924313,23.6934214 136.633256,27.6191567 C145.997927,31.9613887 155.114852,36.8279074 162.065924,42.2307159 C174.482183,51.8523564 188.720764,64.9022896 192.253062,82.4644473 L150.380484,70.2237972 L150.380484,78.393494 Z M46.2239161,149.328008 C45.1960964,150.554911 43.3379442,151.172797 43.0427779,151.309383 C44.6106123,149.035916 43.7636057,146.561415 41.8484542,146.124461 C40.9638423,145.909826 39.6399103,146.330225 39.0188312,147.103027 C38.4654536,147.76585 38.1176044,148.738503 38.1176044,149.700514 C38.1176044,152.039612 39.9150323,153.821726 42.1468726,153.821726 C43.6215806,153.821726 44.8930661,153.036508 45.6164364,151.824978 C45.7894445,151.517513 96.8325179,154.668437 96.8325179,154.668437 L96.8325179,164.846116 C94.003841,165.975458 92.062082,168.611378 92.062082,171.686027 C92.062082,175.781223 95.4832201,179.111304 99.9467824,179.111304 C104.258977,179.111304 107.859273,175.781223 107.859273,171.686027 C107.859273,167.579005 104.258977,164.254246 99.9467824,164.254246 C99.8297093,164.254246 99.7002192,164.262524 99.5825548,164.27021 L100.878638,162.425421 L100.878638,154.668437 L155.155059,151.824978 C155.875828,153.036508 157.147668,153.821726 158.625273,153.821726 C161.089723,153.821726 162.634142,151.783588 162.681445,149.372945 C161.655576,150.572058 159.827343,151.175163 159.533477,151.309383 C161.127564,149.035916 160.248924,146.561415 158.371023,146.124461 C157.45395,145.909826 156.162598,146.330225 155.525791,147.103027 C155.02616,147.684254 154.725199,148.493714 154.641238,149.328008 L98.6891328,149.328008 L100.896967,146.335547 L100.896967,104.149 L96.8632644,104.149 L96.8632644,149.328008 L46.2239161,149.328008 Z M62.1575742,69.5432355 L66.7795992,69.5432355 L66.7795992,111.603841 L62.1575742,111.603841 L62.1575742,128.131852 L89.7844767,128.131852 L89.7844767,111.078785 L87.2159623,111.078785 L87.2159623,98.167625 L113.727122,98.167625 L117.987285,101.549147 L117.987285,108.329931 L115.127861,111.078785 L110.081889,111.078785 L110.081889,128.131852 L125.578711,128.131852 L138.918548,115.592606 L138.918548,94.7405741 L126.878341,85.2659254 L136.354764,69.5432355 L141.503027,69.5432355 L141.503027,53.3044776 L123.135548,53.3044776 L106.805614,82.4538043 L87.2875071,82.4538043 L87.2875071,53.2935981 L62.1575742,53.2935981 L62.1575742,69.5432355 Z M133.010492,44.4406197 C125.571024,41.0841675 115.819657,37.2390235 110.081889,35.517161 L110.081889,58.4707746 L117.948851,44.4406197 L133.010492,44.4406197 Z M89.7844767,44.4343522 L89.7844767,35.517161 C84.0029543,37.2378409 74.2563174,41.0804424 66.8144847,44.4343522 L89.7844767,44.4343522 Z M53.2927112,65.5414618 L53.2927112,51.9447733 C50.0866211,54.2116764 47.0473307,56.7026741 44.3227779,59.1668869 L53.2927112,65.5414618 Z M181.203839,72.8963766 C168.559345,48.0390823 130.242717,31.1206496 103.177529,22.364641 L100.869768,23.4402951 L100.869768,13.4181224 C97.1618601,14.1560381 96.5699902,21.1324163 96.4872112,22.3916624 C69.4846989,31.1587871 31.2414479,48.0668133 18.5975457,72.8963766 L43.4867099,66.0316318 L38.1853058,62.6164064 L29.0437835,65.8424226 C43.1157417,46.235919 80.5067238,31.7084988 96.8632644,27.7766734 L96.8632644,76.1821119 L100.896967,69.3487048 L100.896967,25.0000289 L106.772503,28.9114553 C122.493419,32.9723569 157.672132,47.3126965 170.763632,65.8424226 L161.623647,62.6164064 L156.325199,66.0316318 L181.203839,72.8963766 Z M155.494453,59.1668869 C153.892679,57.7171309 152.172058,56.2557857 150.380484,54.8337015 L150.380484,62.8002941 L155.494453,59.1668869 L155.494453,59.1668869 Z" id="path28" fill="#27409B"></path>
                        <path d="M100.578859,167.228968 C102.856465,167.228968 104.584181,169.044194 104.584181,171.276862 C104.584181,174.041681 102.943974,176.115295 100.353582,176.115295 C97.6674033,176.115295 95.1491477,173.806943 95.1491477,171.115443 C95.1491477,170.284105 95.3750161,169.523721 95.8539518,168.882775 C95.7516606,169.891496 96.3843287,170.528894 96.7662947,170.816847 C97.00458,168.807682 98.5968933,167.228968 100.578859,167.228968" id="path30" fill="#27409B"></path>
                        <polyline id="path32" fill="#27409B" points="144.43163 79.8066499 144.43163 82.3497393 145.135843 82.3497393 145.135843 83.0687341 142.888393 83.0687341 142.888393 82.3497393 143.587284 82.3497393 143.587284 79.8066499 144.43163 79.8066499"></polyline>
                        <polyline id="path34" fill="#27409B" points="146.639464 83.0687341 145.806944 83.0687341 145.248186 79.8066499 146.092531 79.8066499 146.368067 81.6845508 146.376345 81.6845508 147.123721 79.8066499 147.46075 79.8066499 148.243012 81.6845508 148.251881 81.6845508 148.490758 79.8066499 149.340425 79.8066499 148.844933 83.0687341 147.999996 83.0687341 147.301105 81.322097 146.639464 83.0687341"></polyline>
                        <polyline id="path36" fill="#FAB20B" points="87.2875071 82.4538043 106.805614 82.4538043 123.135548 53.3044776 141.503027 53.3044776 141.503027 69.5432355 136.354764 69.5432355 126.878341 85.2659254 138.918548 94.7405741 138.918548 115.592606 125.578711 128.131852 110.081889 128.131852 110.081889 111.078785 115.127861 111.078785 117.987285 108.329931 117.987285 101.549147 113.727122 98.167625 87.2159623 98.167625 87.2159623 111.078785 89.7844767 111.078785 89.7844767 128.131852 62.1575742 128.131852 62.1575742 111.603841 66.7795992 111.603841 66.7795992 69.5432355 62.1575742 69.5432355 62.1575742 53.2935981 87.2875071 53.2935981 87.2875071 82.4538043"></polyline>
                    </g>
                </g>
            </g>
        </g>
    </g>
</svg>