<svg xmlns="http://www.w3.org/2000/svg" enable-background="new 0 0 512 512" version="1" viewBox="0 0 512 512"><path fill="#FF3500" d="M93.867,12.8h326.016C470.547,12.8,512,54.253,512,104.918v314.965C512,470.547,470.547,512,419.883,512
			H92.118C41.453,512,0,470.547,0,419.882V106.667C0,54.933,42.134,12.8,93.867,12.8"/><path fill="#250000" d="M98.133,34.133h317.482c41.45,0,75.051,33.601,75.051,75.051v306.431c0,41.45-33.602,75.051-75.051,75.051
			H96.384c-41.45,0-75.051-33.601-75.051-75.051V110.933C21.333,68.267,55.466,34.133,98.133,34.133"/><polygon fill="#FF3500" points="138.13 230.91 182.154 230.91 182.154 282.482 160.142 315.5 138.13 282.482"/><path fill="#FED9D5" d="M370.416,286.083c-13.317-4.106-45.117,2.062-54.329,5.288c32.956-47.15-13.986-19.208-35.115-8.976
			c8.722-16.604,26.479-45.288-8.245-35.757c95.817-141.094-85.433-43.461-62.445-4.666c3.238,3.749,11.602,11.237,15.163,4.3
			c2.796-5.632-7.11-6.586-8.678-10.675c-1.017-12.122,12.625-21.61,20.41-29.346c13.445-13.206,72.857-47.042,50.173-1.914
			c-7.638,15.952-17.429,30.616-27.167,45.317c-1.892,2.857-4.275,4.684-7.322,6.2c-21.174,11.141-43.448,24.234-55.933,45.379
			c-7.919,14.251,6.435,24.033,19.047,16.169c18.074-12.609,30.909-34.552,43.692-52.093c1.73-2.499,14.321-8.736,24.65-11.573
			c0.26,3.477-14.137,28.63-20.832,38.442c-1.579,2.314-3.953,4.705-1.376,7.65c2.804,3.204,5.579,1.051,8.191-0.517
			c12.641-7.581,25.553-14.663,38.867-20.991c4.343-2.29,7.281-1.827,3.096,2.877c-3.98,7.038-11.038,12.529-14.072,19.911
			c0.653,5.719,6.139,4.286,9.852,2.417c10.074-3.21,20.242-6.157,30.567-8.455c9.232-2.008,18.943-2.892,28.265-0.984
			C375.388,297.601,380.104,288.844,370.416,286.083z M207.632,311.905c-18.573-2.753,29.043-38.587,35.939-39.946
			c-8.191,11.273-15.728,23.266-26.081,32.937C214.721,307.586,211.643,311.172,207.632,311.905z M348.063,287.009
			c0.001,0,0.001,0,0.002-0.001c0.004,0.001,0.008,0.001,0.012,0.002C348.073,287.009,348.068,287.009,348.063,287.009z
			 M365.432,286.905c0.041,0.014,0.082,0.026,0.122,0.04c-0.294,0.027-0.594,0.067-0.903,0.135
			C364.918,286.991,365.177,286.94,365.432,286.905z"/><polygon fill="#FF3500" points="136.243 339.084 136.243 351.558 374.813 351.977 374.813 339.084"/></svg>