<?xml version="1.0" encoding="utf-8"?>
<!-- Generator: Adobe Illustrator 19.0.0, SVG Export Plug-In . SVG Version: 6.00 Build 0)  -->
<svg version="1.1" id="layer" xmlns="http://www.w3.org/2000/svg" xmlns:xlink="http://www.w3.org/1999/xlink" x="0px" y="0px"
	 viewBox="-153 -46 652 652" style="enable-background:new -153 -46 652 652;" xml:space="preserve">
<style type="text/css">
	.st0{fill:#474D57;}
	.st1{fill:#FFFFFF;}
	.st2{fill:#2D7EC2;}
	.st3{fill:#99DAED;}
</style>
<g>
	<path class="st0" d="M71.8,262.7c-1.2-3.6-2-8.2-2.3-10.5l-0.1-1.7h-0.7c0,3.8-0.7,7.8-2.2,12.1L59,283.8h20.4L71.8,262.7z
		 M101,306.8c0.8,2.2,0,3.3-2.3,3.3h-5.2c-4.1,0-5.4-0.6-6.1-3l-4.6-12.9H55.5l-4.7,12.9c-0.8,2.4-2.1,3-6.1,3h-4.6
		c-2.3,0-3.1-1.1-2.3-3.3l24.8-65.2c0.9-2.3,1.8-2.8,4.2-2.8H72c2.4,0,3.4,0.6,4.2,2.7L101,306.8z"/>
	<path class="st0" d="M138.9,277.2c0-6.6-3.7-9.9-11.1-9.9c-3.4,0-6.3,0.4-8.9,1.1c-0.7,0.3-1,0.7-1,1.3v29.8c3.9,1,7,1.5,9.6,1.5
		c7.6,0,11.4-3.6,11.4-10.7V277.2z M129.5,256.7c14,0,20.9,7.1,20.9,20.2v13.7c0,13.9-7.3,21-22.1,21c-2.4,0-5.8-0.6-10.4-1.8V329
		c0,2.3-0.7,3.1-3,3.1h-5.5c-2.3,0-3.1-0.8-3.1-3.1v-63.8c0-3.2,0.7-4.4,3.9-5.7C115.5,257.7,121.9,256.7,129.5,256.7"/>
	<path class="st0" d="M192.6,277.2c0-6.6-3.7-9.9-11.1-9.9c-3.4,0-6.3,0.4-8.9,1.1c-0.7,0.3-1,0.7-1,1.3v29.8c3.9,1,7,1.5,9.6,1.5
		c7.6,0,11.4-3.6,11.4-10.7V277.2z M183.2,256.7c14,0,20.9,7.1,20.9,20.2v13.7c0,13.9-7.3,21-22.1,21c-2.4,0-5.8-0.6-10.4-1.8V329
		c0,2.3-0.7,3.1-3,3.1h-5.5c-2.3,0-3.1-0.8-3.1-3.1v-63.8c0-3.2,0.7-4.4,3.9-5.7C169.3,257.7,175.6,256.7,183.2,256.7"/>
	<path class="st0" d="M240.2,237.4c13.8,0,21.2,4.8,26.1,15.1c1,2.1,0.4,3.6-1.9,4.6l-5.4,2.4c-2.3,0.9-3.1,0.6-4.3-1.7
		c-2.8-5.6-6.9-8.4-14.5-8.4c-9.6,0-14.4,3.1-14.4,9.2c-0.6,5.3,5.3,7.7,10.5,8.5c3.1,0.6,10.2,1.4,13.9,2.1c4,0.8,9.4,2.8,12.5,5.6
		c3.1,2.8,5.5,7.8,5.5,14.2c0,13.6-10.4,22.5-28.2,22.5c-15,0-23-5.5-27.2-16.7c-0.9-2.5-0.3-3.6,2.1-4.4l5.5-2
		c2.3-0.8,3.2-0.3,4.3,2.1c2.6,6.2,7.7,9.3,15.5,9.3c10.5,0,15.8-3.5,15.8-10.4c0-4.4-3.8-7.1-7.7-8.1c-2-0.5-4.7-0.9-7.9-1.2
		c-4.5-0.5-6.3-0.7-10.6-1.6c-4.3-0.9-6.3-2-9.5-4.1c-4.5-2.9-6.5-7.6-6.8-15C213.1,246.2,222.9,237.4,240.2,237.4"/>
	<path class="st0" d="M285.3,235.9c2.3,0,3,0.8,3,3.1v19c1.1-0.5,6.6-1.4,11.9-1.4c13.8,0,20.6,6.7,20.6,20.2V307
		c0,2.3-0.8,3.1-3.1,3.1h-5.4c-2.3,0-3.1-0.8-3.1-3.1v-29.9c0-6.5-3.6-9.8-10.8-9.8c-4.9,0-8.2,0.5-10.2,1.5V307
		c0,2.3-0.7,3.1-3,3.1h-5.5c-2.3,0-3.1-0.8-3.1-3.1v-68c0-2.3,0.8-3.1,3.1-3.1H285.3z"/>
	<path class="st0" d="M364.4,276.7c0-6.5-3.9-10.2-11.4-10.2c-7.4,0-11.5,3.7-11.5,10.2v2.2h22.9V276.7z M330,278.3
		c0-14,8-21.7,23-21.7c15.1,0,22.9,8.6,22.9,20.7v6.1c0,2.9-1.5,4.3-4.5,4.3h-29.9v3.7c0,6.5,4.1,10,11.3,10c5.5,0,9.4-1.8,11.7-5.3
		c1.6-2.3,2.7-2.5,5.1-1.2l3.5,1.9c2.3,1.1,2.7,2.7,1.2,5c-3.9,6.4-11,9.6-21.4,9.6c-15.5,0-22.8-8.3-22.8-21.5V278.3z"/>
	<path class="st0" d="M417.6,276.7c0-6.5-3.9-10.2-11.4-10.2c-7.4,0-11.5,3.7-11.5,10.2v2.2h22.9V276.7z M383.2,278.3
		c0-14,8-21.7,23-21.7c15.1,0,22.9,8.6,22.9,20.7v6.1c0,2.9-1.5,4.3-4.5,4.3h-29.9v3.7c0,6.5,4.1,10,11.3,10c5.5,0,9.4-1.8,11.7-5.3
		c1.6-2.3,2.7-2.5,5.1-1.2l3.5,1.9c2.3,1.1,2.7,2.7,1.2,5c-3.9,6.4-11,9.6-21.4,9.6c-15.5,0-22.8-8.3-22.8-21.5V278.3z"/>
	<path class="st0" d="M451.5,246.1c2.3,0,3.1,0.7,3.1,3v9h11.3c2.3,0,3.1,0.7,3.1,3v4.6c0,2.3-0.8,3.1-3.1,3.1h-11.3v20.1
		c0,4.7,0.8,7.8,2.4,9.3c1.5,1.5,4.5,2.2,8.8,2.2c2.4,0,3.2,0.7,3.2,3.1v4.6c0,2.4-0.8,3.1-3.2,3.2c-8.3,0.3-14.2-1.2-17.5-4.4
		c-3.5-3.2-5.2-9.1-5.2-17.6v-20.5h-6.8c-2.3,0-3-0.8-3-3.1v-4.6c0-2.3,0.7-3,3-3h6.8v-9c0-2.3,0.8-3,3.1-3H451.5z"/>
	<path class="st1" d="M6.7,235.5L6.7,235.5z"/>
	<path class="st1" d="M-7.1,237.6L-7.1,237.6z"/>
	<path class="st1" d="M-7.1,237.6L-7.1,237.6z"/>
	<path class="st1" d="M6.7,235.5L6.7,235.5z"/>
	<path class="st0" d="M-59.4,306.6l65.9-71l-127,19.3l20.1,17.1c0.3,0.3,0.6,0.6,0.8,1c0.2,0.4,0.3,0.8,0.4,1.3l1.5,17.8l8.4-10.6
		L-59.4,306.6z M-59.1,314.1c-0.6,0-1.2-0.2-1.7-0.6l-21.1-17.9c-12,7.5-16.8,10.6-16.8,10.6c-0.4,0.2-0.9,0.4-1.3,0.4
		c-0.7,0-1.3-0.3-1.8-0.7c-0.5-0.5-0.8-1.1-0.8-1.8c-0.1-0.7-2.1-24.8-2.4-28.1l-25.1-21.3c-0.8-0.7-1.1-1.8-0.8-2.8
		c0.3-1,1.1-1.8,2.2-1.9L15.5,228c0.1,0,0.3,0,0.4,0c0.9,0,1.8,0.5,2.3,1.3l0.1,0.1c0.5,1,0.3,2.2-0.4,3.1l-74.9,80.7
		C-57.7,313.8-58.3,314.1-59.1,314.1"/>
	<path class="st1" d="M6.1,236.1c-2.8,1.7-7,4.2-10.2,5.9c-3.9,2-85,39.4-85,39.4l29.8,25.2L6.1,236.1z"/>
	<path class="st2" d="M-12.2,238.5c-17.7,6.7-79.5,30.6-87.8,33.8c0.2,0.2,0.4,0.5,0.5,0.7c0.2,0.4,0.3,0.8,0.4,1.3l1.5,17.8
		l8.4-10.6c0,0,81.4-37.5,85-39.4c3.3-1.7,7.5-4.2,10.2-5.9l0.5-0.5L-12.2,238.5z"/>
	<path class="st1" d="M-12.2,238.5l-108.2,16.4l20.1,17.1c0.1,0.1,0.2,0.2,0.3,0.3l0.2-0.1C-99.1,271.9-31.1,245.6-12.2,238.5"/>
	<path class="st3" d="M-45.7,217c-20.4,0-38.2,11.1-48,27.6l4.5-0.7l76.5-11.6l4.5-0.7C-18.2,222.6-31.3,217-45.7,217"/>
	<path class="st3" d="M3.9,247.5l-2.5,2.7l-58.5,63.1c-0.5,0.5-1.2,0.8-1.9,0.8c-0.6,0-1.2-0.2-1.7-0.6l-21.1-17.9
		c-3.5,2.2-6.4,4-8.8,5.5c-1.1,0.7-2,1.3-2.9,1.8c9.8,16.3,27.6,27.3,47.8,27.3c30.8,0,55.9-25.4,55.9-56.6
		C10.2,264.2,7.9,255.3,3.9,247.5"/>
</g>
</svg>
